<svg width="830" height="88" viewBox="0 0 830 88" fill="none" xmlns="http://www.w3.org/2000/svg">
<rect width="830" height="88" fill="#131317"/>
<rect x="339" y="22" width="164" height="44" stroke="#FAB300" stroke-width="4"/>
<path d="M362.28 55.32C359.96 55.32 357.893 54.8533 356.08 53.92C354.267 52.96 352.84 51.64 351.8 49.96C350.787 48.28 350.28 46.3733 350.28 44.24C350.28 42.08 350.787 40.1733 351.8 38.52C352.84 36.84 354.267 35.5333 356.08 34.6C357.893 33.64 359.96 33.16 362.28 33.16C364.547 33.16 366.52 33.64 368.2 34.6C369.88 35.5333 371.12 36.88 371.92 38.64L367.08 41.24C366.52 40.2267 365.813 39.48 364.96 39C364.133 38.52 363.227 38.28 362.24 38.28C361.173 38.28 360.213 38.52 359.36 39C358.507 39.48 357.827 40.16 357.32 41.04C356.84 41.92 356.6 42.9867 356.6 44.24C356.6 45.4933 356.84 46.56 357.32 47.44C357.827 48.32 358.507 49 359.36 49.48C360.213 49.96 361.173 50.2 362.24 50.2C363.227 50.2 364.133 49.9733 364.96 49.52C365.813 49.04 366.52 48.28 367.08 47.24L371.92 49.88C371.12 51.6133 369.88 52.96 368.2 53.92C366.52 54.8533 364.547 55.32 362.28 55.32ZM388.593 33.16C390.299 33.16 391.819 33.5067 393.153 34.2C394.513 34.8667 395.579 35.9067 396.353 37.32C397.126 38.7067 397.513 40.4933 397.513 42.68V55H391.273V43.64C391.273 41.9067 390.886 40.6267 390.113 39.8C389.366 38.9733 388.299 38.56 386.913 38.56C385.926 38.56 385.033 38.7733 384.233 39.2C383.459 39.6 382.846 40.2267 382.393 41.08C381.966 41.9333 381.753 43.0267 381.753 44.36V55H375.513V33.48H381.473V39.44L380.353 37.64C381.126 36.2 382.233 35.0933 383.673 34.32C385.113 33.5467 386.753 33.16 388.593 33.16ZM414.005 55.32C411.552 55.32 409.392 54.84 407.525 53.88C405.685 52.92 404.259 51.6133 403.245 49.96C402.232 48.28 401.725 46.3733 401.725 44.24C401.725 42.08 402.219 40.1733 403.205 38.52C404.219 36.84 405.592 35.5333 407.325 34.6C409.059 33.64 411.019 33.16 413.205 33.16C415.312 33.16 417.205 33.6133 418.885 34.52C420.592 35.4 421.939 36.68 422.925 38.36C423.912 40.0133 424.405 42 424.405 44.32C424.405 44.56 424.392 44.84 424.365 45.16C424.339 45.4533 424.312 45.7333 424.285 46H406.805V42.36H421.005L418.605 43.44C418.605 42.32 418.379 41.3467 417.925 40.52C417.472 39.6933 416.845 39.0533 416.045 38.6C415.245 38.12 414.312 37.88 413.245 37.88C412.179 37.88 411.232 38.12 410.405 38.6C409.605 39.0533 408.979 39.7067 408.525 40.56C408.072 41.3867 407.845 42.3733 407.845 43.52V44.48C407.845 45.6533 408.099 46.6933 408.605 47.6C409.139 48.48 409.872 49.16 410.805 49.64C411.765 50.0933 412.885 50.32 414.165 50.32C415.312 50.32 416.312 50.1467 417.165 49.8C418.045 49.4533 418.845 48.9333 419.565 48.24L422.885 51.84C421.899 52.96 420.659 53.8267 419.165 54.44C417.672 55.0267 415.952 55.32 414.005 55.32ZM456.12 33.16C457.826 33.16 459.333 33.5067 460.64 34.2C461.973 34.8667 463.013 35.9067 463.76 37.32C464.533 38.7067 464.92 40.4933 464.92 42.68V55H458.68V43.64C458.68 41.9067 458.32 40.6267 457.6 39.8C456.88 38.9733 455.866 38.56 454.56 38.56C453.653 38.56 452.84 38.7733 452.12 39.2C451.4 39.6 450.84 40.2133 450.44 41.04C450.04 41.8667 449.84 42.92 449.84 44.2V55H443.6V43.64C443.6 41.9067 443.24 40.6267 442.52 39.8C441.826 38.9733 440.826 38.56 439.52 38.56C438.613 38.56 437.8 38.7733 437.08 39.2C436.36 39.6 435.8 40.2133 435.4 41.04C435 41.8667 434.8 42.92 434.8 44.2V55H428.56V33.48H434.52V39.36L433.4 37.64C434.146 36.1733 435.2 35.0667 436.56 34.32C437.946 33.5467 439.52 33.16 441.28 33.16C443.253 33.16 444.973 33.6667 446.44 34.68C447.933 35.6667 448.92 37.1867 449.4 39.24L447.2 38.64C447.92 36.96 449.066 35.6267 450.64 34.64C452.24 33.6533 454.066 33.16 456.12 33.16ZM483.713 55V50.8L483.313 49.88V42.36C483.313 41.0267 482.899 39.9867 482.073 39.24C481.273 38.4933 480.033 38.12 478.353 38.12C477.206 38.12 476.073 38.3067 474.953 38.68C473.859 39.0267 472.926 39.5067 472.153 40.12L469.913 35.76C471.086 34.9333 472.499 34.2933 474.153 33.84C475.806 33.3867 477.486 33.16 479.193 33.16C482.473 33.16 485.019 33.9333 486.833 35.48C488.646 37.0267 489.553 39.44 489.553 42.72V55H483.713ZM477.153 55.32C475.473 55.32 474.033 55.04 472.833 54.48C471.633 53.8933 470.713 53.1067 470.073 52.12C469.433 51.1333 469.113 50.0267 469.113 48.8C469.113 47.52 469.419 46.4 470.033 45.44C470.673 44.48 471.673 43.7333 473.033 43.2C474.393 42.64 476.166 42.36 478.353 42.36H484.073V46H479.033C477.566 46 476.553 46.24 475.993 46.72C475.459 47.2 475.193 47.8 475.193 48.52C475.193 49.32 475.499 49.96 476.113 50.44C476.753 50.8933 477.619 51.12 478.713 51.12C479.753 51.12 480.686 50.88 481.513 50.4C482.339 49.8933 482.939 49.16 483.313 48.2L484.273 51.08C483.819 52.4667 482.993 53.52 481.793 54.24C480.593 54.96 479.046 55.32 477.153 55.32Z" fill="white"/>
</svg>
