<svg width="120" height="34" fill="none" xmlns="http://www.w3.org/2000/svg">
  <title>Go Home</title>
  <path
    d="M14 24.2c1.3.7 2.8 1 4.5 1 1.7 0 3.2-.3 4.4-1a6.2 6.2 0 0 0 2.7-3.1L21.5 19c-.7 1.3-1.7 2-3 2-1 0-1.8-.3-2.4-1-.7-.6-1-1.5-1-2.6s.3-2 1-2.6c.6-.7 1.4-1 2.3-1 1.4 0 2.4.7 3 2l4.2-2a6 6 0 0 0-2.7-3.1 8.5 8.5 0 0 0-4.4-1.1c-1.7 0-3.2.3-4.5 1a7.5 7.5 0 0 0-3.2 2.8c-.7 1.1-1 2.5-1 4s.3 2.8 1 4a7.7 7.7 0 0 0 3.2 2.8ZM42 11.3a6.2 6.2 0 0 0-4.5-1.7 7 7 0 0 0-2.7.5c-.8.3-1.6.8-2.2 1.4V9.8h-5V25h5.3v-7.3c0-1.2.3-2.1.8-2.7.6-.6 1.3-1 2.2-1 1.7 0 2.5 1.1 2.5 3.2V25h5.3v-8.7c0-2.2-.5-4-1.7-5Z"
    fill="#fff"
  />
  <path
    fill-rule="evenodd"
    clip-rule="evenodd"
    d="m62.7 18.8.1-1.4c0-1.6-.4-3-1-4.2a7 7 0 0 0-3-2.7c-1.2-.6-2.6-1-4.1-1a9 9 0 0 0-4.3 1 7.6 7.6 0 0 0-3 2.9c-.7 1.2-1 2.5-1 4s.3 2.8 1 4a7.6 7.6 0 0 0 3.2 2.8c1.3.7 2.9 1 4.6 1 2.9 0 5-.8 6.5-2.4l-2.8-3c-.5.5-1 .9-1.6 1-.5.3-1.2.4-1.9.4-1 0-1.8-.2-2.4-.6-.7-.5-1-1-1.3-1.8h11Zm-10-4.7c.5-.5 1.2-.7 2-.7a3 3 0 0 1 3.1 2.6h-6.2c.2-.8.5-1.5 1-2Z"
    fill="#fff"
  />
  <path
    d="M89.5 11.3A6 6 0 0 0 85 9.6c-1 0-2 .2-3 .6-.9.4-1.6 1-2.2 1.8a4.9 4.9 0 0 0-2-1.8c-1-.4-1.9-.6-3-.6-.9 0-1.7.1-2.5.4-.8.3-1.4.8-2 1.4V9.8h-5V25h5.3v-7.5c0-1.2.2-2 .7-2.6.5-.5 1.1-.8 2-.8 1.5 0 2.3 1 2.3 3V25h5.3v-7.5c0-1.2.2-2 .7-2.6.5-.5 1.1-.8 2-.8a2 2 0 0 1 1.6.7c.4.5.6 1.3.6 2.4V25h5.4v-8.7c0-2.2-.6-4-1.7-5Z"
    fill="#fff"
  />
  <path
    fill-rule="evenodd"
    clip-rule="evenodd"
    d="M106.8 11.3c-1.4-1.1-3.3-1.7-5.8-1.7-1.2 0-2.4.1-3.7.4-1.2.3-2.2.8-3 1.3L96 15c.5-.4 1.1-.7 1.9-.9.7-.2 1.5-.4 2.2-.4 2 0 3.1.8 3.2 2.4h-3c-2.3 0-4 .4-5.1 1.2a3.8 3.8 0 0 0-1.7 3.4c0 .9.3 1.7.7 2.4.4.7 1 1.2 2 1.6a7 7 0 0 0 3 .7c2.2 0 3.7-.8 4.5-2.3v2h5v-8.4c0-2.4-.7-4.2-2-5.3Zm-4.4 10.1a3 3 0 0 1-1.6.5c-.6 0-1.1-.1-1.5-.4-.3-.3-.5-.7-.5-1.1 0-1 .8-1.6 2.3-1.6h2.3v1.3c-.2.6-.5 1-1 1.3Z"
    fill="#fff"
  />
  <path
    fill-rule="evenodd"
    clip-rule="evenodd"
    d="M0 0h120v34H0V0Zm3 3h114v28H3V3Z"
    fill="#fab300"
  />
</svg>